<svg data-v-423bf9ae="" xmlns="http://www.w3.org/2000/svg" viewBox="0 0 350 90" class="iconLeft"><!----><!----><!----><g data-v-423bf9ae="" id="1644c6d0-7444-460d-a59f-7c73979d00a4" fill="black" transform="matrix(4.8,0,0,4.8,155.21279365420344,-6.3119988441467285)"><path d="M0.56 10.53L0.56 10.53L0.56 10.53Q0.59 9.11 0.59 8.20L0.59 8.20L0.59 8.20Q0.59 7.29 0.46 6.47L0.46 6.47L0.46 6.47Q0.46 6.33 0.74 6.33L0.74 6.33L0.74 6.33Q1.02 6.33 1.23 6.40L1.23 6.40L1.23 6.40Q1.43 6.47 1.51 6.55L1.51 6.55L1.51 6.55Q1.74 6.78 1.77 6.78L1.77 6.78L1.77 6.78Q1.81 6.78 1.99 6.65L1.99 6.65L1.99 6.65Q2.53 6.30 3.20 6.30L3.20 6.30L3.20 6.30Q3.86 6.30 4.36 6.64L4.36 6.64L4.36 6.64Q4.86 6.97 5.07 7.52L5.07 7.52L5.07 7.52Q5.45 8.46 5.45 9.51L5.45 9.51L5.45 9.51Q5.45 10.54 5.07 11.58L5.07 11.58L5.07 11.58Q4.86 12.14 4.45 12.49L4.45 12.49L4.45 12.49Q4.05 12.85 3.50 12.85L3.50 12.85L3.50 12.85Q2.42 12.85 2.42 11.61L2.42 11.61L2.42 11.61Q2.42 11.27 2.56 11.27L2.56 11.27L2.56 11.27Q2.59 11.27 2.72 11.33L2.72 11.33L2.72 11.33Q2.86 11.40 2.98 11.40L2.98 11.40L2.98 11.40Q3.98 11.40 3.98 9.29L3.98 9.29L3.98 9.29Q3.98 7.18 2.91 7.18L2.91 7.18L2.91 7.18Q2.62 7.18 2.42 7.31L2.42 7.31L2.42 7.31Q2.21 7.45 2.16 7.57L2.16 7.57L2.10 7.71L2.10 7.71Q1.90 8.97 1.90 12.57L1.90 12.57L1.90 12.57Q1.90 14.20 1.97 14.90L1.97 14.90L1.97 14.90Q2.03 15.61 2.03 15.75L2.03 15.75L2.03 15.75Q2.03 15.89 1.95 16.00L1.95 16.00L1.95 16.00Q1.67 16.37 1.19 16.65L1.19 16.65L1.19 16.65Q0.71 16.94 0.35 16.94L0.35 16.94L0.35 16.94Q0.21 16.94 0.21 16.76L0.21 16.76L0.21 16.76Q0.43 15.34 0.56 10.53ZM10.26 7.85L10.19 8.92L10.25 9.41L10.25 9.41Q10.25 9.67 9.74 9.67L9.74 9.67L9.74 9.67Q8.72 9.67 8.72 8.90L8.72 8.90L8.72 8.90Q8.72 8.72 8.82 8.40L8.82 8.40L8.82 8.40Q8.92 8.08 8.92 7.84L8.92 7.84L8.92 7.84Q8.92 7.60 8.78 7.43L8.78 7.43L8.78 7.43Q8.64 7.25 8.37 7.25L8.37 7.25L8.37 7.25Q8.11 7.25 7.92 7.44L7.92 7.44L7.92 7.44Q7.73 7.63 7.69 7.83L7.69 7.83L7.63 8.02L7.63 8.02Q7.55 8.46 7.55 9.47L7.55 9.47L7.55 9.47Q7.55 10.49 7.57 11.07L7.57 11.07L7.57 11.07Q7.60 11.65 7.63 11.87L7.63 11.87L7.63 11.87Q7.66 12.08 7.66 12.12L7.66 12.12L7.66 12.12Q7.66 12.47 7.22 12.69L7.22 12.69L7.22 12.69Q6.79 12.91 6.36 12.91L6.36 12.91L6.36 12.91Q5.92 12.91 5.92 12.73L5.92 12.73L5.99 12.29L5.99 12.29Q6.19 11.07 6.19 9.11L6.19 9.11L6.19 9.11Q6.19 7.15 6.05 6.45L6.05 6.45L6.05 6.45Q6.05 6.29 6.34 6.29L6.34 6.29L6.34 6.29Q7.10 6.29 7.35 6.80L7.35 6.80L7.35 6.80Q7.36 6.86 7.40 6.86L7.40 6.86L7.40 6.86Q7.43 6.86 7.59 6.73L7.59 6.73L7.59 6.73Q8.05 6.36 8.68 6.36L8.68 6.36L8.68 6.36Q9.07 6.36 9.46 6.51L9.46 6.51L9.46 6.51Q10.26 6.83 10.26 7.85L10.26 7.85ZM11.91 7.39L11.91 7.39L11.91 7.39Q11.55 7.41 11.39 7.41L11.39 7.41L11.39 7.41Q11.23 7.42 11.23 7.34L11.23 7.34L11.23 7.34Q11.23 7.25 11.31 7.17L11.31 7.17L11.31 7.17Q12.21 6.34 14.34 6.34L14.34 6.34L14.34 6.34Q15.06 6.34 15.48 6.47L15.48 6.47L15.62 6.51L15.62 6.51Q15.79 6.58 15.79 6.66L15.79 6.66L15.79 6.66Q15.79 6.73 15.69 6.78L15.69 6.78L15.69 6.78Q15.32 6.89 14.97 7.13L14.97 7.13L14.97 7.13Q14.62 7.38 14.62 7.48L14.62 7.48L14.70 7.57L14.70 7.57Q15.15 7.83 15.39 8.37L15.39 8.37L15.39 8.37Q15.64 8.92 15.67 9.34L15.67 9.34L15.69 9.77L15.69 9.77Q15.69 11.16 14.92 12.05L14.92 12.05L14.92 12.05Q14.15 12.95 12.82 12.95L12.82 12.95L12.82 12.95Q12.15 12.95 11.66 12.71L11.66 12.71L11.66 12.71Q11.17 12.47 10.94 12.17L10.94 12.17L10.94 12.17Q10.71 11.87 10.57 11.49L10.57 11.49L10.57 11.49Q10.40 10.98 10.40 10.42L10.40 10.42L10.40 10.42Q10.40 9.87 10.59 9.31L10.59 9.31L10.59 9.31Q10.78 8.75 11.03 8.48L11.03 8.48L11.03 8.48Q11.27 8.22 11.58 8.05L11.58 8.05L11.58 8.05Q11.97 7.84 12.21 7.84L12.21 7.84L12.21 7.84Q12.45 7.84 12.45 7.94L12.45 7.94L12.36 8.08L12.36 8.08Q12.05 8.44 11.92 9.03L11.92 9.03L11.92 9.03Q11.79 9.62 11.79 10.07L11.79 10.07L11.79 10.07Q11.79 10.53 11.90 10.98L11.90 10.98L11.90 10.98Q12.01 11.42 12.15 11.64L12.15 11.64L12.15 11.64Q12.29 11.86 12.47 11.97L12.47 11.97L12.47 11.97Q12.74 12.14 13.03 12.14L13.03 12.14L13.03 12.14Q13.33 12.14 13.61 11.91L13.61 11.91L13.61 11.91Q13.89 11.68 14.01 11.30L14.01 11.30L14.01 11.30Q14.27 10.60 14.27 9.86L14.27 9.86L14.27 9.86Q14.27 8.68 13.67 8.04L13.67 8.04L13.67 8.04Q13.08 7.39 11.91 7.39ZM16.39 10.53L16.39 10.53L16.39 10.53Q16.42 9.11 16.42 8.20L16.42 8.20L16.42 8.20Q16.42 7.29 16.30 6.47L16.30 6.47L16.30 6.47Q16.30 6.33 16.58 6.33L16.58 6.33L16.58 6.33Q16.86 6.33 17.06 6.40L17.06 6.40L17.06 6.40Q17.26 6.47 17.35 6.55L17.35 6.55L17.35 6.55Q17.57 6.78 17.61 6.78L17.61 6.78L17.61 6.78Q17.64 6.78 17.82 6.65L17.82 6.65L17.82 6.65Q18.37 6.30 19.03 6.30L19.03 6.30L19.03 6.30Q19.70 6.30 20.20 6.64L20.20 6.64L20.20 6.64Q20.69 6.97 20.90 7.52L20.90 7.52L20.90 7.52Q21.28 8.46 21.28 9.51L21.28 9.51L21.28 9.51Q21.28 10.54 20.90 11.58L20.90 11.58L20.90 11.58Q20.69 12.14 20.29 12.49L20.29 12.49L20.29 12.49Q19.88 12.85 19.33 12.85L19.33 12.85L19.33 12.85Q18.26 12.85 18.26 11.61L18.26 11.61L18.26 11.61Q18.26 11.27 18.40 11.27L18.40 11.27L18.40 11.27Q18.42 11.27 18.56 11.33L18.56 11.33L18.56 11.33Q18.69 11.40 18.82 11.40L18.82 11.40L18.82 11.40Q19.81 11.40 19.81 9.29L19.81 9.29L19.81 9.29Q19.81 7.18 18.75 7.18L18.75 7.18L18.75 7.18Q18.45 7.18 18.25 7.31L18.25 7.31L18.25 7.31Q18.05 7.45 17.99 7.57L17.99 7.57L17.93 7.71L17.93 7.71Q17.74 8.97 17.74 12.57L17.74 12.57L17.74 12.57Q17.74 14.20 17.80 14.90L17.80 14.90L17.80 14.90Q17.86 15.61 17.86 15.75L17.86 15.75L17.86 15.75Q17.86 15.89 17.78 16.00L17.78 16.00L17.78 16.00Q17.50 16.37 17.02 16.65L17.02 16.65L17.02 16.65Q16.55 16.94 16.18 16.94L16.18 16.94L16.18 16.94Q16.04 16.94 16.04 16.76L16.04 16.76L16.04 16.76Q16.27 15.34 16.39 10.53ZM23.30 9.11L23.30 9.11L23.31 9.46L23.31 9.46Q23.31 9.55 23.42 9.55L23.42 9.55L23.42 9.55Q23.87 9.51 24.21 9.32L24.21 9.32L24.21 9.32Q24.54 9.13 24.71 8.89L24.71 8.89L24.71 8.89Q25.05 8.37 25.07 7.99L25.07 7.99L25.09 7.83L25.09 7.83Q25.09 7.07 24.49 7.07L24.49 7.07L24.49 7.07Q24.04 7.07 23.76 7.46L23.76 7.46L23.76 7.46Q23.30 8.08 23.30 9.11ZM26.35 10.98L26.35 10.98L26.35 10.98Q26.35 11.51 26.13 11.91L26.13 11.91L26.13 11.91Q25.91 12.31 25.64 12.49L25.64 12.49L25.64 12.49Q25.37 12.68 25.00 12.80L25.00 12.80L25.00 12.80Q24.54 12.94 24.12 12.94L24.12 12.94L24.12 12.94Q22.95 12.94 22.39 12.05L22.39 12.05L22.39 12.05Q21.83 11.17 21.83 9.81L21.83 9.81L21.83 9.81Q21.83 8.44 22.52 7.38L22.52 7.38L22.52 7.38Q23.21 6.31 24.60 6.31L24.60 6.31L24.60 6.31Q25.86 6.31 26.31 7.20L26.31 7.20L26.31 7.20Q26.49 7.53 26.49 7.83L26.49 7.83L26.49 7.83Q26.49 8.13 26.46 8.31L26.46 8.31L26.46 8.31Q26.43 8.48 26.26 8.83L26.26 8.83L26.26 8.83Q26.10 9.18 25.82 9.46L25.82 9.46L25.82 9.46Q25.54 9.74 24.93 10.00L24.93 10.00L24.93 10.00Q24.33 10.25 23.52 10.33L23.52 10.33L23.52 10.33Q23.41 10.33 23.41 10.43L23.41 10.43L23.41 10.43Q23.41 10.56 23.50 10.80L23.50 10.80L23.50 10.80Q23.59 11.05 23.70 11.21L23.70 11.21L23.70 11.21Q24.01 11.61 24.61 11.61L24.61 11.61L24.61 11.61Q25.21 11.61 25.63 11.21L25.63 11.21L25.63 11.21Q25.86 11.00 26.00 10.70L26.00 10.70L26.00 10.70Q26.05 10.58 26.14 10.58L26.14 10.58L26.14 10.58Q26.24 10.58 26.29 10.74L26.29 10.74L26.29 10.74Q26.35 10.89 26.35 10.98ZM31.32 7.85L31.25 8.92L31.30 9.41L31.30 9.41Q31.30 9.67 30.80 9.67L30.80 9.67L30.80 9.67Q29.78 9.67 29.78 8.90L29.78 8.90L29.78 8.90Q29.78 8.72 29.88 8.40L29.88 8.40L29.88 8.40Q29.97 8.08 29.97 7.84L29.97 7.84L29.97 7.84Q29.97 7.60 29.83 7.43L29.83 7.43L29.83 7.43Q29.69 7.25 29.43 7.25L29.43 7.25L29.43 7.25Q29.16 7.25 28.97 7.44L28.97 7.44L28.97 7.44Q28.78 7.63 28.74 7.83L28.74 7.83L28.69 8.02L28.69 8.02Q28.60 8.46 28.60 9.47L28.60 9.47L28.60 9.47Q28.60 10.49 28.63 11.07L28.63 11.07L28.63 11.07Q28.66 11.65 28.69 11.87L28.69 11.87L28.69 11.87Q28.71 12.08 28.71 12.12L28.71 12.12L28.71 12.12Q28.71 12.47 28.28 12.69L28.28 12.69L28.28 12.69Q27.85 12.91 27.41 12.91L27.41 12.91L27.41 12.91Q26.98 12.91 26.98 12.73L26.98 12.73L27.05 12.29L27.05 12.29Q27.24 11.07 27.24 9.11L27.24 9.11L27.24 9.11Q27.24 7.15 27.10 6.45L27.10 6.45L27.10 6.45Q27.10 6.29 27.40 6.29L27.40 6.29L27.40 6.29Q28.15 6.29 28.41 6.80L28.41 6.80L28.41 6.80Q28.42 6.86 28.45 6.86L28.45 6.86L28.45 6.86Q28.49 6.86 28.64 6.73L28.64 6.73L28.64 6.73Q29.11 6.36 29.74 6.36L29.74 6.36L29.74 6.36Q30.13 6.36 30.52 6.51L30.52 6.51L30.52 6.51Q31.32 6.83 31.32 7.85L31.32 7.85ZM31.74 7.21L31.74 7.21L31.78 6.65L31.78 6.65Q31.79 6.52 31.98 6.52L31.98 6.52L32.47 6.52L32.41 5.40L32.41 5.35L32.41 5.35Q32.41 5.03 32.90 4.73L32.90 4.73L32.90 4.73Q33.39 4.44 33.80 4.44L33.80 4.44L33.80 4.44Q33.92 4.44 33.92 4.55L33.92 4.55L33.92 4.56L33.92 4.56Q33.87 4.94 33.81 6.51L33.81 6.51L33.81 6.51Q34.43 6.51 34.59 6.48L34.59 6.48L34.59 6.48Q34.76 6.45 34.78 6.45L34.78 6.45L34.78 6.45Q34.87 6.45 34.87 6.62L34.87 6.62L34.87 6.62Q34.87 6.79 34.72 7.05L34.72 7.05L34.72 7.05Q34.57 7.31 34.38 7.32L34.38 7.32L33.80 7.32L33.80 7.32Q33.78 7.80 33.78 8.93L33.78 8.93L33.78 8.93Q33.78 10.05 33.80 10.78L33.80 10.78L33.80 10.78Q33.82 11.51 33.85 11.88L33.85 11.88L33.85 11.88Q33.88 12.25 33.91 12.47L33.91 12.47L33.91 12.47Q33.95 12.70 33.97 12.80L33.97 12.80L33.97 12.80Q33.99 12.89 33.99 12.92L33.99 12.92L33.99 12.92Q33.99 13.06 33.81 13.08L33.81 13.08L33.81 13.08Q33.26 13.08 32.73 12.92L32.73 12.92L32.73 12.92Q32.19 12.77 32.19 12.39L32.19 12.39L32.19 12.39Q32.48 10.04 32.48 7.34L32.48 7.34L32.48 7.34Q32.10 7.34 31.91 7.36L31.91 7.36L31.89 7.36L31.89 7.36Q31.77 7.36 31.74 7.21ZM37.70 16.55L37.70 16.55L37.70 16.55Q37.70 16.72 37.53 16.72L37.53 16.72L37.52 16.72L37.52 16.72Q37.06 16.72 36.48 16.39L36.48 16.39L36.48 16.39Q35.90 16.07 35.90 15.65L35.90 15.65L35.90 15.65Q35.90 15.23 36.43 14.19L36.43 14.19L36.43 14.19Q36.96 13.15 36.96 12.80L36.96 12.80L36.96 12.80Q36.96 12.42 36.60 11.44L36.60 11.44L36.60 11.44Q36.13 10.16 35.86 9.37L35.86 9.37L35.86 9.37Q35.59 8.57 35.27 7.96L35.27 7.96L35.27 7.96Q34.96 7.35 34.82 7.24L34.82 7.24L34.68 7.14L34.68 7.14Q34.52 7.06 34.52 6.96L34.52 6.96L34.52 6.96Q34.52 6.76 35.13 6.56L35.13 6.56L35.13 6.56Q35.74 6.36 36.20 6.36L36.20 6.36L36.20 6.36Q36.41 6.36 36.55 6.69L36.55 6.69L36.55 6.69Q36.81 7.35 37.10 8.51L37.10 8.51L37.10 8.51Q37.81 10.89 38.00 10.89L38.00 10.89L38.00 10.89Q38.12 10.89 38.51 9.91L38.51 9.91L38.51 9.91Q38.89 8.93 38.89 8.33L38.89 8.33L38.89 8.33Q38.89 7.28 38.28 7.10L38.28 7.10L38.28 7.10Q38.14 7.07 38.14 6.96L38.14 6.96L38.14 6.96Q38.14 6.71 38.79 6.47L38.79 6.47L38.79 6.47Q39.45 6.24 39.98 6.24L39.98 6.24L39.98 6.24Q40.45 6.24 40.45 6.85L40.45 6.85L40.45 6.85Q40.45 7.31 40.25 7.92L40.25 7.92L40.25 7.92Q40.05 8.54 39.89 8.90L39.89 8.90L39.89 8.90Q39.72 9.25 39.05 10.55L39.05 10.55L39.05 10.55Q38.39 11.84 37.95 12.82L37.95 12.82L37.95 12.82Q37.48 14 37.48 15.22L37.48 15.22L37.48 15.22Q37.48 15.86 37.59 16.18L37.59 16.18L37.59 16.18Q37.70 16.51 37.70 16.55Z"></path></g><!----><g data-v-423bf9ae="" id="fb604aef-43c3-4a25-bf29-da20290da77c" transform="matrix(1.4379293781848441,0,0,1.4379293781848441,-11.69659952208957,-9.014705762578338)" stroke="none" fill="black"><path d="M102.923 54.276l-6.311 6.407-41.002-41.05-41.026 41.05-6.395-6.407L55.584 6.887l.071.068.249-.071L75.281 26.08V12.474h8v22.35z"></path><path d="M47.281 40.474h17v29h-17z"></path></g><!----></svg>